<?xml version="1.0" encoding="UTF-8"?>
<!DOCTYPE svg PUBLIC "-//W3C//DTD SVG 1.1//EN" "http://www.w3.org/Graphics/SVG/1.1/DTD/svg11.dtd">
<!-- Creator: CorelDRAW 2020 (64-Bit) -->
<svg xmlns="http://www.w3.org/2000/svg" xml:space="preserve" width="10.131mm" height="11.6344mm" version="1.1" style="shape-rendering:geometricPrecision; text-rendering:geometricPrecision; image-rendering:optimizeQuality; fill-rule:evenodd; clip-rule:evenodd"
viewBox="0 0 71.02 81.56"
 xmlns:xlink="http://www.w3.org/1999/xlink"
 xmlns:xodm="http://www.corel.com/coreldraw/odm/2003">
 <defs>
  <style type="text/css">
   <![CDATA[
    .str0 {stroke:#0A2C48;stroke-width:5.94;stroke-miterlimit:22.9256}
    .fil0 {fill:#0A2C48;fill-rule:nonzero}
   ]]>
  </style>
 </defs>
 <g id="Capa_x0020_1">
  <metadata id="CorelCorpID_0Corel-Layer"/>
  <path class="fil0 str0" d="M2.97 78.6l0 -75.63 20.02 0c1.78,0 3.57,0.06 5.4,0.17 1.83,0.12 3.61,0.27 5.35,0.5 1.74,0.23 3.4,0.5 5.02,0.83 1.62,0.31 3.13,0.69 4.48,1.16 4.03,1.27 7.59,3.01 10.69,5.19 3.09,2.18 5.67,4.77 7.76,7.74 2.1,2.97 3.69,6.31 4.77,9.98 1.06,3.67 1.6,7.66 1.6,11.95 0,4.07 -0.44,7.89 -1.35,11.45 -0.91,3.57 -2.28,6.81 -4.13,9.75 -1.85,2.95 -4.17,5.54 -6.99,7.78 -2.82,2.24 -6.14,4.07 -9.98,5.52 -3.2,1.2 -6.85,2.1 -10.91,2.7 -4.07,0.6 -8.67,0.91 -13.74,0.91l-17.99 0zm19.61 -11.58c8.09,0 14.42,-1.12 18.97,-3.34 4.03,-1.99 7.08,-4.9 9.15,-8.71 2.07,-3.8 3.11,-8.67 3.11,-14.59 0,-3.09 -0.35,-5.87 -1.02,-8.36 -0.68,-2.49 -1.66,-4.71 -2.93,-6.64 -1.27,-1.95 -2.84,-3.61 -4.65,-5 -1.83,-1.41 -3.9,-2.55 -6.2,-3.45 -2.14,-0.83 -4.54,-1.43 -7.16,-1.81 -2.64,-0.37 -5.6,-0.56 -8.88,-0.56l-6.1 0 0 52.46 5.71 0z"/>
 </g>
</svg>
