<?xml version="1.0" encoding="UTF-8"?>
<!DOCTYPE svg PUBLIC "-//W3C//DTD SVG 1.1//EN" "http://www.w3.org/Graphics/SVG/1.1/DTD/svg11.dtd">
<!-- Creator: CorelDRAW 2020 (64-Bit) -->
<svg xmlns="http://www.w3.org/2000/svg" xml:space="preserve" width="9.9616mm" height="11.465mm" version="1.1" style="shape-rendering:geometricPrecision; text-rendering:geometricPrecision; image-rendering:optimizeQuality; fill-rule:evenodd; clip-rule:evenodd"
viewBox="0 0 68.59 78.94"
 xmlns:xlink="http://www.w3.org/1999/xlink"
 xmlns:xodm="http://www.corel.com/coreldraw/odm/2003">
 <defs>
  <style type="text/css">
   <![CDATA[
    .str0 {stroke:#0A2C48;stroke-width:4.66;stroke-miterlimit:22.9256}
    .fil0 {fill:#0A2C48;fill-rule:nonzero}
   ]]>
  </style>
 </defs>
 <g id="Capa_x0020_1">
  <metadata id="CorelCorpID_0Corel-Layer"/>
  <path class="fil0 str0" d="M2.33 76.61l0 -74.28 19.66 0c1.74,0 3.51,0.06 5.31,0.17 1.8,0.11 3.55,0.27 5.25,0.49 1.71,0.23 3.34,0.49 4.93,0.82 1.59,0.3 3.07,0.68 4.4,1.14 3.96,1.25 7.45,2.96 10.5,5.1 3.03,2.14 5.57,4.68 7.62,7.6 2.07,2.92 3.62,6.2 4.68,9.8 1.04,3.6 1.57,7.53 1.57,11.73 0,4 -0.44,7.75 -1.33,11.24 -0.89,3.51 -2.24,6.69 -4.06,9.57 -1.82,2.9 -4.1,5.44 -6.86,7.64 -2.77,2.2 -6.03,4 -9.8,5.42 -3.15,1.18 -6.73,2.07 -10.71,2.65 -4,0.59 -8.51,0.89 -13.5,0.89l-17.67 0zm19.26 -11.37c7.94,0 14.16,-1.1 18.64,-3.28 3.96,-1.95 6.96,-4.82 8.99,-8.55 2.03,-3.73 3.05,-8.51 3.05,-14.33 0,-3.03 -0.34,-5.76 -1,-8.21 -0.66,-2.45 -1.63,-4.63 -2.88,-6.52 -1.25,-1.91 -2.79,-3.55 -4.57,-4.91 -1.8,-1.38 -3.83,-2.5 -6.09,-3.39 -2.1,-0.82 -4.45,-1.4 -7.03,-1.78 -2.6,-0.36 -5.5,-0.55 -8.72,-0.55l-5.99 0 0 51.53 5.61 0z"/>
 </g>
</svg>
