<?xml version="1.0" encoding="UTF-8"?>
<!DOCTYPE svg PUBLIC "-//W3C//DTD SVG 1.1//EN" "http://www.w3.org/Graphics/SVG/1.1/DTD/svg11.dtd">
<!-- Creator: CorelDRAW 2020 (64-Bit) -->
<svg xmlns="http://www.w3.org/2000/svg" xml:space="preserve" width="45.1301mm" height="3.5878mm" version="1.1" style="shape-rendering:geometricPrecision; text-rendering:geometricPrecision; image-rendering:optimizeQuality; fill-rule:evenodd; clip-rule:evenodd"
viewBox="0 0 1405.42 111.73"
 xmlns:xlink="http://www.w3.org/1999/xlink"
 xmlns:xodm="http://www.corel.com/coreldraw/odm/2003">
 <defs>
  <style type="text/css">
   <![CDATA[
    .fil0 {fill:#0A2C48;fill-rule:nonzero}
   ]]>
  </style>
 </defs>
 <g id="Capa_x0020_1">
  <metadata id="CorelCorpID_0Corel-Layer"/>
  <path class="fil0" d="M87.17 55.45c0,6.29 -0.77,12.2 -2.33,17.71 -1.54,5.52 -3.9,10.49 -7.03,14.91 -3.13,4.42 -7.06,8.24 -11.76,11.45 -4.67,3.21 -10.16,5.71 -16.42,7.47 -3.6,1.02 -7.5,1.73 -11.67,2.14 -4.18,0.41 -8.71,0.6 -13.6,0.6l-24.36 0 0 -107.61 24.61 0c4.89,0 9.42,0.19 13.6,0.6 4.18,0.41 8.08,1.1 11.65,2.14 6.29,1.76 11.75,4.23 16.45,7.39 4.7,3.16 8.6,6.89 11.67,11.2 3.07,4.34 5.38,9.17 6.92,14.56 1.51,5.41 2.28,11.21 2.28,17.41zm-13.02 0c0,-10.33 -2.28,-18.7 -6.84,-25.13 -4.56,-6.43 -11.1,-10.99 -19.61,-13.65 -3.27,-1.04 -6.89,-1.73 -10.91,-2.11 -4.04,-0.36 -8.57,-0.55 -13.59,-0.55l-10.03 0 0 83.88 10.03 0c5.03,0 9.56,-0.19 13.59,-0.55 4.01,-0.39 7.64,-1.1 10.91,-2.12 8.51,-2.66 15.05,-7.36 19.61,-14.03 4.56,-6.7 6.84,-15.27 6.84,-25.74zm49.57 42.43l55.21 0 0 11.86 -68.39 0 0 -107.61 65.39 0 0 11.86 -52.21 0 0 34.77 46.44 0 0 11.86 -46.44 0 0 37.24zm88.22 -67.37c0,3.16 0.63,5.77 1.92,7.83 1.29,2.09 2.99,3.79 5.16,5.14 2.17,1.32 4.67,2.44 7.53,3.29 2.86,0.85 5.85,1.65 8.93,2.42 4.18,1.02 8.27,2.14 12.3,3.38 4.04,1.24 7.61,2.94 10.77,5.11 3.16,2.17 5.71,5 7.66,8.49 1.95,3.49 2.91,7.97 2.91,13.46 0,5.57 -1.04,10.38 -3.16,14.45 -2.11,4.04 -5.05,7.36 -8.79,9.97 -3.74,2.61 -8.13,4.53 -13.24,5.79 -5.11,1.26 -10.68,1.9 -16.73,1.9 -2.8,0 -5.66,-0.17 -8.57,-0.52 -2.94,-0.36 -5.71,-0.82 -8.38,-1.4 -2.67,-0.58 -5.05,-1.26 -7.2,-2.01 -2.14,-0.74 -3.85,-1.51 -5.08,-2.25l0 -11.95c1.92,0.96 4.1,1.81 6.51,2.61 2.42,0.8 4.91,1.48 7.5,2.03 2.58,0.55 5.17,0.99 7.8,1.32 2.64,0.3 5.11,0.47 7.41,0.47 3.74,0 7.33,-0.33 10.74,-0.96 3.4,-0.66 6.4,-1.73 8.95,-3.21 2.58,-1.51 4.62,-3.57 6.13,-6.15 1.51,-2.61 2.25,-5.85 2.25,-9.78 0,-3.21 -0.66,-5.88 -1.98,-7.97 -1.29,-2.09 -3.05,-3.82 -5.25,-5.19 -2.2,-1.37 -4.72,-2.47 -7.58,-3.35 -2.88,-0.85 -5.88,-1.65 -9.03,-2.39 -4.2,-0.99 -8.27,-2.06 -12.25,-3.27 -4.01,-1.21 -7.55,-2.88 -10.68,-5.03 -3.13,-2.14 -5.66,-4.92 -7.55,-8.3 -1.9,-3.38 -2.86,-7.72 -2.86,-12.96 0,-5.47 0.99,-10.19 2.99,-14.12 2.01,-3.95 4.72,-7.22 8.13,-9.8 3.43,-2.56 7.36,-4.48 11.81,-5.71 4.45,-1.24 9.2,-1.84 14.25,-1.84 5.74,0 11.07,0.55 16.04,1.65 4.97,1.1 9.5,2.56 13.65,4.31l0 12.17c-4.45,-1.87 -9.06,-3.4 -13.81,-4.59 -4.75,-1.18 -9.83,-1.78 -15.24,-1.84 -4.06,0 -7.61,0.44 -10.63,1.32 -2.99,0.88 -5.49,2.14 -7.47,3.79 -1.98,1.62 -3.46,3.6 -4.42,5.93 -0.96,2.33 -1.45,4.92 -1.45,7.77zm69.6 79.24l43.75 -107.61 11.37 0 43.92 107.61 -14.25 0 -12.63 -32.3 -45.37 0 -12.69 32.3 -14.09 0zm49.36 -90.96c-4.84,13.4 -9.45,25.6 -13.82,36.56l-4.14 10.24 36.01 0 -4.15 -10.27c-4.42,-11.15 -8.93,-23.32 -13.57,-36.53l-0.33 0zm79.32 46.47l0 44.5 -13.18 0 0 -107.61 27.93 0c4.72,0 8.73,0.17 12.03,0.52 3.3,0.36 6.32,0.91 9.04,1.65 7.53,2.03 13.27,5.52 17.22,10.44 3.98,4.89 5.96,11.04 5.96,18.38 0,4.37 -0.69,8.24 -2.09,11.67 -1.4,3.43 -3.35,6.43 -5.88,8.95 -2.53,2.53 -5.55,4.59 -9.06,6.18 -3.52,1.62 -7.42,2.8 -11.7,3.54l0 0.33 31.86 45.95 -13.18 0 -33.12 -44.5 -15.82 0zm0 -51.25l0 39.38 12.96 0c4.01,0 7.44,-0.14 10.3,-0.41 2.83,-0.25 5.38,-0.74 7.63,-1.43 4.56,-1.4 8.08,-3.62 10.55,-6.67 2.47,-3.05 3.71,-7.06 3.71,-11.97 -0.06,-4.62 -1.24,-8.32 -3.54,-11.15 -2.31,-2.8 -5.49,-4.83 -9.59,-6.07 -1.92,-0.58 -4.23,-1.02 -6.92,-1.26 -2.66,-0.28 -6.07,-0.41 -10.21,-0.41l-14.89 0zm97.53 51.25l0 44.5 -13.18 0 0 -107.61 27.93 0c4.72,0 8.73,0.17 12.03,0.52 3.3,0.36 6.32,0.91 9.04,1.65 7.53,2.03 13.27,5.52 17.22,10.44 3.98,4.89 5.96,11.04 5.96,18.38 0,4.37 -0.69,8.24 -2.09,11.67 -1.4,3.43 -3.35,6.43 -5.88,8.95 -2.53,2.53 -5.55,4.59 -9.06,6.18 -3.52,1.62 -7.42,2.8 -11.7,3.54l0 0.33 31.86 45.95 -13.18 0 -33.12 -44.5 -15.82 0zm0 -51.25l0 39.38 12.96 0c4.01,0 7.44,-0.14 10.3,-0.41 2.83,-0.25 5.38,-0.74 7.63,-1.43 4.56,-1.4 8.08,-3.62 10.55,-6.67 2.47,-3.05 3.71,-7.06 3.71,-11.97 -0.06,-4.62 -1.24,-8.32 -3.54,-11.15 -2.31,-2.8 -5.49,-4.83 -9.59,-6.07 -1.92,-0.58 -4.23,-1.02 -6.92,-1.26 -2.66,-0.28 -6.07,-0.41 -10.21,-0.41l-14.89 0zm167.57 41.94c0,-7.25 -0.96,-13.62 -2.86,-19.15 -1.9,-5.52 -4.5,-10.13 -7.83,-13.84 -3.35,-3.71 -7.28,-6.51 -11.81,-8.4 -4.5,-1.9 -9.36,-2.86 -14.58,-2.86 -5.19,0 -10.08,0.96 -14.58,2.86 -4.53,1.89 -8.46,4.7 -11.81,8.4 -3.32,3.71 -5.93,8.32 -7.83,13.84 -1.9,5.52 -2.86,11.89 -2.86,19.15 0,7.25 0.96,13.59 2.88,19.11 1.92,5.49 4.56,10.08 7.88,13.79 3.35,3.71 7.28,6.48 11.81,8.35 4.51,1.9 9.39,2.83 14.67,2.83 5.19,0 10.05,-0.93 14.5,-2.83 4.48,-1.87 8.38,-4.64 11.73,-8.35 3.33,-3.71 5.93,-8.29 7.83,-13.79 1.9,-5.52 2.86,-11.86 2.86,-19.11zm13.02 0c0,8.16 -1.18,15.63 -3.52,22.47 -2.34,6.81 -5.69,12.69 -10.05,17.6 -4.37,4.95 -9.61,8.79 -15.74,11.56 -6.15,2.77 -13.02,4.15 -20.63,4.15 -7.88,0 -14.91,-1.37 -21.15,-4.15 -6.21,-2.77 -11.48,-6.62 -15.79,-11.56 -4.31,-4.91 -7.61,-10.79 -9.89,-17.6 -2.28,-6.84 -3.43,-14.31 -3.43,-22.47 0,-8.21 1.18,-15.74 3.54,-22.58 2.36,-6.84 5.71,-12.74 10.05,-17.69 4.34,-4.91 9.59,-8.76 15.76,-11.53 6.15,-2.77 13.07,-4.15 20.74,-4.15 7.83,0 14.83,1.37 21.01,4.15 6.21,2.77 11.45,6.62 15.76,11.53 4.31,4.95 7.61,10.85 9.89,17.69 2.28,6.84 3.43,14.37 3.43,22.58zm37.32 -53.81l0 95.74 52.54 0 0 11.86 -65.72 0 0 -107.61 13.18 0zm85.77 0l0 95.74 52.54 0 0 11.86 -65.72 0 0 -107.61 13.18 0zm61.8 107.61l43.75 -107.61 11.37 0 43.92 107.61 -14.25 0 -12.63 -32.3 -45.37 0 -12.69 32.3 -14.09 0zm49.36 -90.96c-4.84,13.4 -9.45,25.6 -13.82,36.56l-4.14 10.24 36.01 0 -4.15 -10.27c-4.42,-11.15 -8.93,-23.32 -13.57,-36.53l-0.33 0zm153.31 36.67c0,6.29 -0.77,12.2 -2.33,17.71 -1.54,5.52 -3.9,10.49 -7.03,14.91 -3.13,4.42 -7.06,8.24 -11.76,11.45 -4.67,3.21 -10.16,5.71 -16.42,7.47 -3.6,1.02 -7.5,1.73 -11.67,2.14 -4.18,0.41 -8.71,0.6 -13.6,0.6l-24.36 0 0 -107.61 24.61 0c4.89,0 9.42,0.19 13.6,0.6 4.18,0.41 8.08,1.1 11.65,2.14 6.29,1.76 11.75,4.23 16.45,7.39 4.7,3.16 8.6,6.89 11.67,11.2 3.07,4.34 5.38,9.17 6.92,14.56 1.51,5.41 2.28,11.21 2.28,17.41zm-13.02 0c0,-10.33 -2.28,-18.7 -6.84,-25.13 -4.56,-6.43 -11.1,-10.99 -19.61,-13.65 -3.27,-1.04 -6.89,-1.73 -10.91,-2.11 -4.04,-0.36 -8.57,-0.55 -13.59,-0.55l-10.03 0 0 83.88 10.03 0c5.03,0 9.56,-0.19 13.59,-0.55 4.01,-0.39 7.64,-1.1 10.91,-2.12 8.51,-2.66 15.05,-7.36 19.61,-14.03 4.56,-6.7 6.84,-15.27 6.84,-25.74zm119.61 0.5c0,-7.25 -0.96,-13.62 -2.86,-19.15 -1.9,-5.52 -4.5,-10.13 -7.83,-13.84 -3.35,-3.71 -7.28,-6.51 -11.81,-8.4 -4.5,-1.9 -9.36,-2.86 -14.58,-2.86 -5.19,0 -10.08,0.96 -14.58,2.86 -4.53,1.89 -8.46,4.7 -11.81,8.4 -3.32,3.71 -5.93,8.32 -7.83,13.84 -1.9,5.52 -2.86,11.89 -2.86,19.15 0,7.25 0.96,13.59 2.88,19.11 1.92,5.49 4.56,10.08 7.88,13.79 3.35,3.71 7.28,6.48 11.81,8.35 4.51,1.9 9.39,2.83 14.67,2.83 5.19,0 10.05,-0.93 14.5,-2.83 4.48,-1.87 8.38,-4.64 11.73,-8.35 3.33,-3.71 5.93,-8.29 7.83,-13.79 1.9,-5.52 2.86,-11.86 2.86,-19.11zm13.02 0c0,8.16 -1.18,15.63 -3.52,22.47 -2.34,6.81 -5.69,12.69 -10.05,17.6 -4.37,4.95 -9.61,8.79 -15.74,11.56 -6.15,2.77 -13.02,4.15 -20.63,4.15 -7.88,0 -14.91,-1.37 -21.15,-4.15 -6.21,-2.77 -11.48,-6.62 -15.79,-11.56 -4.31,-4.91 -7.61,-10.79 -9.89,-17.6 -2.28,-6.84 -3.43,-14.31 -3.43,-22.47 0,-8.21 1.18,-15.74 3.54,-22.58 2.36,-6.84 5.71,-12.74 10.05,-17.69 4.34,-4.91 9.59,-8.76 15.76,-11.53 6.15,-2.77 13.07,-4.15 20.74,-4.15 7.83,0 14.83,1.37 21.01,4.15 6.21,2.77 11.45,6.62 15.76,11.53 4.31,4.95 7.61,10.85 9.89,17.69 2.28,6.84 3.43,14.37 3.43,22.58zm37.32 9.31l0 44.5 -13.18 0 0 -107.61 27.93 0c4.72,0 8.73,0.17 12.03,0.52 3.3,0.36 6.32,0.91 9.04,1.65 7.53,2.03 13.27,5.52 17.22,10.44 3.98,4.89 5.96,11.04 5.96,18.38 0,4.37 -0.69,8.24 -2.09,11.67 -1.4,3.43 -3.35,6.43 -5.88,8.95 -2.53,2.53 -5.55,4.59 -9.06,6.18 -3.52,1.62 -7.42,2.8 -11.7,3.54l0 0.33 31.86 45.95 -13.18 0 -33.12 -44.5 -15.82 0zm0 -51.25l0 39.38 12.96 0c4.01,0 7.44,-0.14 10.3,-0.41 2.83,-0.25 5.38,-0.74 7.63,-1.43 4.56,-1.4 8.08,-3.62 10.55,-6.67 2.47,-3.05 3.71,-7.06 3.71,-11.97 -0.06,-4.62 -1.24,-8.32 -3.54,-11.15 -2.31,-2.8 -5.49,-4.83 -9.59,-6.07 -1.92,-0.58 -4.23,-1.02 -6.92,-1.26 -2.66,-0.28 -6.07,-0.41 -10.21,-0.41l-14.89 0zm73.55 95.74l43.75 -107.61 11.37 0 43.92 107.61 -14.25 0 -12.63 -32.3 -45.37 0 -12.69 32.3 -14.09 0zm49.36 -90.96c-4.84,13.4 -9.45,25.6 -13.82,36.56l-4.14 10.24 36.01 0 -4.15 -10.27c-4.42,-11.15 -8.93,-23.32 -13.57,-36.53l-0.33 0z"/>
 </g>
</svg>
