<?xml version="1.0" encoding="UTF-8"?>
<!DOCTYPE svg PUBLIC "-//W3C//DTD SVG 1.1//EN" "http://www.w3.org/Graphics/SVG/1.1/DTD/svg11.dtd">
<!-- Creator: CorelDRAW 2020 (64-Bit) -->
<svg xmlns="http://www.w3.org/2000/svg" xml:space="preserve" width="8.4668mm" height="6.7734mm" version="1.1" style="shape-rendering:geometricPrecision; text-rendering:geometricPrecision; image-rendering:optimizeQuality; fill-rule:evenodd; clip-rule:evenodd"
viewBox="0 0 81.34 65.08"
 xmlns:xlink="http://www.w3.org/1999/xlink"
 xmlns:xodm="http://www.corel.com/coreldraw/odm/2003">
 <defs>
  <style type="text/css">
   <![CDATA[
    .fil0 {fill:#0A2C48}
   ]]>
  </style>
 </defs>
 <g id="Capa_x0020_1">
  <metadata id="CorelCorpID_0Corel-Layer"/>
  <path class="fil0" d="M7.02 25.51l67.3 0c3.86,0 7.02,3.16 7.02,7.02l0 0c0,3.86 -3.16,7.02 -7.02,7.02l-67.3 0c-3.86,0 -7.02,-3.16 -7.02,-7.02l0 -0c0,-3.86 3.16,-7.02 7.02,-7.02z"/>
  <path class="fil0" d="M7.02 51.03l67.3 0c3.86,0 7.02,3.16 7.02,7.02l0 0c0,3.86 -3.16,7.02 -7.02,7.02l-67.3 0c-3.86,0 -7.02,-3.16 -7.02,-7.02l0 -0c0,-3.86 3.16,-7.02 7.02,-7.02z"/>
  <path class="fil0" d="M7.02 0l67.3 0c3.86,0 7.02,3.16 7.02,7.02l0 0c0,3.86 -3.16,7.02 -7.02,7.02l-67.3 0c-3.86,0 -7.02,-3.16 -7.02,-7.02l0 -0c0,-3.86 3.16,-7.02 7.02,-7.02z"/>
 </g>
</svg>
