<?xml version="1.0" encoding="UTF-8"?>
<!DOCTYPE svg PUBLIC "-//W3C//DTD SVG 1.1//EN" "http://www.w3.org/Graphics/SVG/1.1/DTD/svg11.dtd">
<!-- Creator: CorelDRAW 2020 (64-Bit) -->
<svg xmlns="http://www.w3.org/2000/svg" xml:space="preserve" width="8.4668mm" height="8.4666mm" version="1.1" style="shape-rendering:geometricPrecision; text-rendering:geometricPrecision; image-rendering:optimizeQuality; fill-rule:evenodd; clip-rule:evenodd"
viewBox="0 0 81.34 81.34"
 xmlns:xlink="http://www.w3.org/1999/xlink"
 xmlns:xodm="http://www.corel.com/coreldraw/odm/2003">
 <defs>
  <style type="text/css">
   <![CDATA[
    .fil0 {fill:#0A2C48}
   ]]>
  </style>
 </defs>
 <g id="Capa_x0020_1">
  <metadata id="CorelCorpID_0Corel-Layer"/>
  <path class="fil0" d="M1.97 69.83l67.86 -67.86c2.63,-2.63 6.93,-2.62 9.55,0l0 0c2.62,2.62 2.62,6.92 0,9.55l-67.86 67.86c-2.62,2.62 -6.92,2.63 -9.55,0l-0 -0c-2.62,-2.62 -2.63,-6.92 0,-9.55z"/>
  <path class="fil0" d="M1.97 11.52l67.86 67.86c2.63,2.63 6.93,2.62 9.55,-0l0 -0c2.62,-2.62 2.62,-6.92 0,-9.55l-67.86 -67.86c-2.62,-2.62 -6.92,-2.63 -9.55,0l-0 0c-2.62,2.63 -2.63,6.92 0,9.55z"/>
 </g>
</svg>
